<svg width="99" height="94" viewBox="0 0 99 94" fill="none" xmlns="http://www.w3.org/2000/svg">
<path fill-rule="evenodd" clip-rule="evenodd" d="M39.9375 0.97946C27.033 4.4449 11.9699 16.4887 4.5939 29.239C1.30738 34.9204 -0.0226511 40.3519 0.000291413 47.9969C0.0174983 53.6484 0.312565 55.8459 1.53617 59.4424C4.34408 67.6984 9.18432 75.0852 16.5814 82.4065C25.6615 91.3937 34.2338 94.5075 48.3014 93.927C70.4964 93.0113 88.2475 81.5074 95.6216 63.2601C98.4314 56.3089 99.323 50.7864 98.9005 42.9532C97.8082 22.6871 84.251 6.34167 64.314 1.25415C58.2591 -0.290989 45.2156 -0.438508 39.9375 0.97946Z" fill="#872654"/>
<path fill-rule="evenodd" clip-rule="evenodd" d="M34.7459 21.245C33.6227 21.5848 32.6251 23.154 30.8887 27.3121C30.1259 29.1388 29.8469 29.897 29.0832 32.218C28.7341 33.2791 28.3536 34.2568 28.2377 34.3907C27.7266 34.9814 24.6766 37.7051 23.8817 38.2807C23.4003 38.6293 22.0142 39.6632 20.8017 40.5781C19.5892 41.4932 18.3723 42.3577 18.0976 42.4995C17.5618 42.7758 17.2416 43.1492 17.2416 43.4976C17.2416 43.7953 17.6597 44.1994 17.9679 44.1994C18.2856 44.1994 19.7101 43.3345 20.9546 42.3862C21.4733 41.9909 22.6911 41.1028 23.6611 40.4125C25.5254 39.0857 26.4484 38.3612 27.1725 37.6557C27.4157 37.4189 27.6144 37.2772 27.6142 37.3409C27.6139 37.4045 27.5008 38.0307 27.3626 38.7323C27.2055 39.5305 27.1069 40.5081 27.0994 41.3444C27.0884 42.5492 27.1179 42.7486 27.3987 43.369C27.7774 44.2059 28.1802 44.5064 28.9062 44.494C29.8547 44.4777 30.2529 44.1729 32.7304 41.5656C34.0206 40.2077 35.1139 39.0968 35.16 39.0968C35.2062 39.0968 35.1455 39.5205 35.0253 40.0383C34.5937 41.897 34.8027 43.4334 35.5721 44.0571C35.9813 44.3888 36.9876 44.4165 37.616 44.1132C38.0614 43.8982 39.4777 42.5155 40.0168 41.7696C40.3469 41.3127 40.3275 41.2969 40.5703 42.2197C40.8554 43.3028 41.7593 43.8975 42.6854 43.6115C43.2887 43.4253 43.9561 42.8017 45.301 41.1675L46.4155 39.8133L46.4832 40.8913C46.5995 42.7424 47.1998 43.5905 48.3946 43.5915C49.2306 43.5922 49.7476 43.2548 51.3162 41.6849L52.7217 40.2782V41.0915C52.7217 42.1822 52.9166 42.9137 53.3278 43.3674C53.6442 43.7166 53.7138 43.7393 54.3073 43.6887C54.8311 43.6438 55.0455 43.5502 55.4974 43.1684C56.1507 42.6167 57.5865 40.9034 58.5059 39.5784L59.1625 38.6321L59.1542 40.3528C59.1482 41.598 59.1907 42.1573 59.308 42.377C59.7611 43.2263 60.3779 43.4984 61.2436 43.231C61.6242 43.1135 62.1158 42.6831 63.5507 41.211C64.5536 40.1821 65.3863 39.3539 65.401 39.3704C65.4158 39.3869 65.3761 39.7285 65.3127 40.1295C65.0877 41.5519 65.4244 42.8096 66.1785 43.3629C66.4319 43.5489 66.7769 43.6568 67.2252 43.6902C68.3893 43.7771 69.2547 43.2226 70.4253 41.6398L71.0512 40.7936L71.1845 41.4763C71.3424 42.2843 71.627 42.7244 72.1793 43.0146C72.7218 43.2998 73.2822 43.2825 73.9313 42.9606C74.5181 42.6696 76.922 40.3389 77.1949 39.7964C77.4976 39.1946 77.1712 38.6108 76.532 38.6108C76.3704 38.6108 75.7525 39.1354 74.8063 40.076C73.0298 41.8416 72.8392 41.8998 72.7838 40.6933C72.7591 40.1528 72.844 39.535 73.0667 38.6357L73.3848 37.3505L73.138 36.8568C73.0022 36.5853 72.8353 36.1393 72.7672 35.8656C72.5954 35.1766 72.0279 34.4123 71.47 34.1189C70.3957 33.554 69.1686 33.9258 67.7076 35.2586C67.2614 35.6657 66.4556 36.3268 65.9168 36.7277C65.378 37.1286 64.007 38.4105 62.8701 39.5762L60.8032 41.6957L60.7176 41.2771C60.5602 40.5074 61.0108 37.2457 61.5559 35.2072C61.6724 34.7719 62.1928 33.5321 62.7123 32.4521C63.2319 31.372 63.8033 30.088 63.9821 29.5987C64.161 29.1096 64.3524 28.6494 64.4077 28.576C64.4717 28.4911 65.4109 28.4175 67.0028 28.3726C69.2202 28.3103 69.5315 28.2764 69.8029 28.0678C70.2941 27.6902 70.283 26.9237 69.7838 26.7504C69.4943 26.6499 67.681 26.6652 65.9346 26.783C64.9021 26.8528 64.8313 26.8429 64.9066 26.6407C64.9511 26.5212 65.046 25.8991 65.1174 25.2581C65.2793 23.8041 65.1459 23.1542 64.6286 22.8786C64.1634 22.6306 63.892 22.6482 63.5192 22.9505C63.0098 23.3634 62.6762 24.1722 61.9637 26.7224C61.9167 26.8903 61.6829 26.9292 60.5015 26.9654C59.0227 27.0106 58.8447 27.0761 58.6828 27.6343C58.6304 27.8147 58.6936 27.9997 58.8867 28.2311C59.1608 28.5596 59.1905 28.5658 60.3581 28.5421L61.5498 28.5181L61.3204 29.3426C61.1942 29.7961 60.8997 30.9599 60.666 31.9288C60.4321 32.8977 60.1856 33.7998 60.118 33.9334C59.6715 34.8163 57.0892 38.8392 56.4528 39.6435C55.5102 40.8346 54.5818 41.8911 54.4777 41.8911C54.1814 41.8911 54.5337 38.6163 54.971 37.3061C55.2451 36.4852 55.2534 36.1965 55.0136 35.8436C54.7639 35.4761 54.1428 35.4778 53.8215 35.8469C53.6905 35.9973 53.3799 36.4718 53.1311 36.9017C52.2639 38.3993 49.6386 41.3413 48.748 41.8133C48.3805 42.0081 48.3651 42.006 48.224 41.7399C48.0379 41.3893 48.044 39.7328 48.2366 38.3071C48.3949 37.1353 48.4317 37.0505 49.7092 34.9053C50.6843 33.2679 52.028 30.532 52.5417 29.1384C53.0861 27.6618 53.3555 26.3253 53.3633 25.0645C53.3715 23.75 53.1328 23.0008 52.5331 22.4582C51.3299 21.3693 50.0667 22.587 49.262 25.6113C49.0531 26.3962 47.8213 31.9487 47.2946 34.4801C46.9484 36.1435 46.8923 36.2967 46.2896 37.2258C45.5628 38.3462 42.8192 41.6967 42.4713 41.8885C41.8986 42.2044 41.8588 40.7539 42.3896 38.9145C42.6787 37.9122 42.6478 37.3721 42.2934 37.2319C42.2071 37.1978 42.1017 36.9578 42.0593 36.6985C41.9439 35.9946 41.3477 35.0103 40.8177 34.6489C40.2194 34.2408 39.1551 34.2151 38.3108 34.5886C36.9302 35.1993 34.7022 37.1339 31.6222 40.3961C29.5519 42.5889 29.0985 42.9833 28.8924 42.7708C28.69 42.5622 28.6342 41.1409 28.7856 40.0501C28.9476 38.8837 29.5555 36.0514 29.7597 35.5128C29.8356 35.3123 30.3521 34.653 30.9073 34.0476C32.8315 31.9497 35.1533 28.6956 36.1031 26.7654C36.9151 25.1153 37.19 24.2308 37.1991 23.239C37.205 22.5983 37.1527 22.3887 36.8817 21.9666C36.4002 21.2166 35.6631 20.9675 34.7459 21.245ZM34.9544 23.0018C34.577 23.2747 33.8585 24.5746 32.9698 26.5921C32.079 28.6139 31.1083 31.0751 31.1747 31.1435C31.2298 31.2003 32.292 29.8113 33.2682 28.4056C34.0519 27.2773 35.1305 25.1883 35.4463 24.1877C35.7894 23.1005 35.5651 22.5599 34.9544 23.0018ZM51.2582 24.6885C50.9218 25.4726 49.4785 31.5423 49.599 31.6666C49.6697 31.7395 50.3655 30.2485 50.8981 28.8827C51.1739 28.1756 51.4848 27.1717 51.5891 26.6518C51.8009 25.5961 51.8406 24.2071 51.6622 24.0935C51.5979 24.0525 51.4163 24.3204 51.2582 24.6885ZM54.9024 31.3682C54.4083 31.5902 54.2305 31.852 54.2305 32.3582C54.2305 33.1308 54.9361 33.6535 55.5427 33.3302C55.9665 33.1044 56.3004 32.3028 56.1455 31.8829C56.0351 31.5833 55.5963 31.196 55.3771 31.2046C55.3105 31.2073 55.0969 31.2809 54.9024 31.3682ZM38.8904 36.6794C37.6566 37.5216 36.9169 38.7869 36.515 40.7425C36.2976 41.8002 36.293 42.2684 36.4975 42.5565C36.6526 42.7752 36.6713 42.7738 37.0817 42.5124C37.6156 42.1722 38.2411 41.4558 39.5553 39.6788L40.5927 38.2762L40.5117 37.6235C40.3396 36.2355 39.9083 35.9844 38.8904 36.6794ZM68.8621 36.7581C67.7805 37.3228 67.0456 38.8248 66.9012 40.7661C66.8276 41.755 66.9394 42.0128 67.4409 42.0121C68.1235 42.0111 68.7313 41.3565 70.5653 38.6469L71.2398 37.6504L71.0508 37.2737C70.5776 36.3304 69.96 36.185 68.8621 36.7581Z" fill="#F8E9DF"/>
<path fill-rule="evenodd" clip-rule="evenodd" d="M34.3891 45.8434C33.8387 46.1162 33.3923 46.6756 33.0133 47.5674C32.7286 48.2377 31.2494 52.7416 30.5221 55.1531C29.9276 57.1237 29.6859 57.5432 27.9258 59.6573C25.9637 62.014 24.8169 63.2664 24.0459 63.8944C22.3627 65.2651 21.3473 65.5587 20.7494 64.8473C20.0687 64.0375 20.0222 62.5431 20.6317 61.0576C21.067 59.9968 21.4383 59.613 22.2895 59.3443L22.9812 59.1262L23.4526 59.5151C23.9715 59.9432 24.4077 60.0056 24.8266 59.7119C25.2259 59.4321 25.2021 58.6864 24.7778 58.1815C24.2969 57.6094 23.8643 57.4361 22.9187 57.4362C22.2388 57.4362 21.9289 57.508 21.2791 57.8156C19.8674 58.484 18.5501 59.4659 16.6977 61.2304C14.0241 63.7772 12.8174 64.6107 11.2938 64.9628C10.4094 65.1673 10.1966 65.2857 10.058 65.6503C9.90772 66.0459 10.1361 66.551 10.5076 66.6443C11.1485 66.8053 13.1577 66.074 14.6292 65.1442C15.1731 64.8005 16.5101 63.6662 17.7461 62.4999L18.5914 61.7022L18.5041 62.4021C18.3876 63.3351 18.7149 64.8322 19.2045 65.606C19.4067 65.9254 19.8269 66.3557 20.1386 66.5623C20.6065 66.8727 20.8294 66.9379 21.421 66.9379C21.8149 66.9379 22.3739 66.8454 22.6635 66.7324C24.0624 66.1862 25.7667 64.7745 27.5932 62.6493C28.1374 62.0158 28.6043 61.5192 28.6305 61.5453C28.6567 61.5716 28.5196 62.1154 28.3258 62.7539C27.5906 65.1757 27.4934 65.6862 27.698 66.0527C27.9089 66.4306 28.5989 66.5659 28.9374 66.2956C29.0475 66.2078 29.8664 65.0429 30.7573 63.7069C32.5898 60.9589 33.3109 60.1044 34.2121 59.6135C34.9793 59.1955 34.9652 59.0869 34.4675 61.57C33.9629 64.0874 33.8827 65.234 34.154 66.0517C34.6032 67.4055 35.8007 67.6962 36.9328 66.7262C37.2248 66.4761 37.7469 65.9309 38.0932 65.5146C39.4296 63.9081 40.5101 62.7484 40.5101 62.9205C40.5101 63.0195 40.4503 63.3794 40.3772 63.7205C40.1057 64.9875 40.8698 66.4226 41.9209 66.6201C42.6287 66.753 43.3632 66.342 44.4406 65.2101C44.9573 64.6672 45.4145 64.2231 45.4568 64.2231C45.4991 64.2231 45.5662 64.3866 45.6062 64.5864C45.7313 65.2129 46.2931 65.7191 46.9451 65.7927C47.4284 65.8472 47.6207 65.7973 48.194 65.469C48.8265 65.1068 50.8652 63.1136 50.8652 62.8576C50.8652 62.7941 50.9207 62.7423 50.9885 62.7423C51.0582 62.7423 51.1135 63.1049 51.1158 63.5753C51.1221 64.892 51.3138 66.0791 51.577 66.432C51.7078 66.6074 51.9863 66.8 52.1959 66.8602C52.7913 67.0311 53.3011 66.6704 54.7019 65.0869C56.1381 63.4633 56.7106 62.7145 57.2585 61.7425L57.6456 61.0562L58.2943 61.11C58.7749 61.1498 59.1909 61.0806 59.8993 60.8424C60.4254 60.6657 60.8772 60.5211 60.9033 60.5211C60.9296 60.5211 60.7629 60.9674 60.5331 61.5129C59.4399 64.1075 59.4305 65.9475 60.5065 66.7343C60.7067 66.8807 61.1132 67.0011 61.522 67.0351C62.4902 67.1154 63.266 66.7074 64.43 65.5059C65.2296 64.6803 65.3588 64.5901 65.4699 64.7799C65.7831 65.3153 66.1932 65.6986 66.5949 65.8313C67.9211 66.2695 69.5368 65.0342 71.5621 62.0339C72.1228 61.203 72.6411 60.4865 72.7137 60.4416C72.9314 60.307 72.7414 61.1636 72.0719 63.3365C71.2816 65.9013 71.2704 66.2801 71.9735 66.644C72.5073 66.9203 72.8011 66.7909 73.6089 65.923C76.1374 63.2068 78.774 60.6519 78.9091 60.7871C78.9389 60.817 78.8 61.5329 78.6007 62.378C78.0995 64.5034 78.0737 64.7974 78.3254 65.516C78.7166 66.6325 79.7394 66.979 80.9444 66.4031C81.405 66.183 83.1666 64.888 83.6227 64.4344C84.0377 64.0216 84.0999 63.4863 83.7805 63.0797C83.4181 62.6185 83.172 62.6537 82.4042 63.2764C81.2927 64.178 80.1645 64.9635 79.9811 64.9635C79.8439 64.9635 79.8245 64.839 79.8892 64.3774C79.9344 64.0549 80.0232 63.6246 80.0863 63.421C80.2671 62.8377 80.8211 60.0739 80.8206 59.7577C80.8199 59.2422 80.382 58.6914 79.9014 58.6011C78.9986 58.4317 77.1446 59.7031 75.1867 61.8341C74.5938 62.4793 74.0915 62.9558 74.0706 62.8929C74.0496 62.8299 74.173 62.2366 74.3449 61.5744C74.7401 60.052 74.7646 58.8397 74.4093 58.3877C74.04 57.9177 73.5343 57.8545 72.8393 58.1913C72.0416 58.5778 71.3471 59.3299 70.1873 61.0628C69.0932 62.6974 68.4895 63.4044 67.7486 63.9183C67.0158 64.4267 66.935 64.2606 67.1959 62.7817C67.3134 62.1153 67.5201 61.3201 67.6551 61.0147C68.2111 59.7571 68.258 59.5429 68.0615 59.1624C67.9617 58.9692 67.7544 58.7731 67.6012 58.727C67.4479 58.6807 67.1561 58.4885 66.9527 58.3001C66.4201 57.8065 65.8443 57.5476 65.1204 57.4765C64.4475 57.4104 62.9285 57.8495 60.3757 58.848C59.7436 59.0953 59.0649 59.3299 58.8674 59.3694C58.5093 59.4411 58.5083 59.4397 58.5083 58.8269C58.5083 58.0463 58.1186 57.5595 57.4937 57.5595C56.6472 57.5595 56.0806 58.3882 56.2181 59.4254C56.3109 60.126 56.2063 60.3734 55.2263 61.7721C54.6145 62.6454 53.1553 64.3606 52.9524 64.4449C52.7712 64.5203 52.6771 60.6281 52.8345 59.5687C52.9679 58.6711 52.9626 58.5061 52.7923 58.2458C52.2845 57.47 51.5713 57.7734 51.0487 58.9878C50.2998 60.7279 49.4794 62.0311 48.5105 63.02C47.9951 63.546 47.4749 63.9763 47.3543 63.9763C47.1583 63.9763 47.1412 63.8748 47.191 63.0127C47.2351 62.2497 47.3303 61.8774 47.6482 61.2241C48.0696 60.3584 48.0892 59.8392 47.7123 59.5261C47.6142 59.4445 47.4308 59.1492 47.3048 58.8697C46.782 57.7099 45.8475 57.2883 44.5338 57.6196C43.3806 57.9103 42.3613 58.4644 41.4618 59.2894C40.6891 59.9982 37.9559 63.0179 36.5774 64.6859C36.2268 65.1101 35.8783 65.4571 35.8029 65.4571C35.6242 65.4571 35.7512 63.5993 36.0052 62.4955C36.3565 60.9704 36.6042 59.1019 36.5171 58.6365C36.3913 57.9658 35.9876 57.5577 35.3673 57.4744C34.94 57.4171 34.6884 57.4811 33.9499 57.8351C32.9475 58.3157 32.1504 58.9735 31.2319 60.0784C30.8924 60.4868 30.6465 60.7117 30.6853 60.5785C31.4999 57.7838 31.6118 57.5328 32.9405 55.5233C34.3132 53.4472 35.9132 50.3918 36.3227 49.0645C36.7837 47.5704 36.5687 46.4406 35.7149 45.8697C35.1999 45.5253 35.0378 45.5221 34.3891 45.8434ZM34.3302 48.8672C34.0841 49.5418 33.8431 50.2325 33.7949 50.4022C33.7106 50.6985 33.7143 50.7008 33.8879 50.4639C34.2023 50.0342 34.8527 48.2691 34.8145 47.9486C34.7888 47.7324 34.6445 48.006 34.3302 48.8672ZM44.294 59.6605C43.8857 59.9818 42.9614 61.3751 42.5746 62.2523C41.9862 63.5861 41.8464 64.8401 42.2859 64.8401C42.6137 64.8401 45.3331 61.7996 45.8054 60.9052C45.9767 60.5808 45.9076 59.8609 45.6785 59.5846C45.4633 59.325 44.6645 59.3688 44.294 59.6605ZM63.4272 59.9312C62.3454 61.0473 61.0829 64.3542 61.4395 65.1378C61.6611 65.6243 62.1476 65.408 63.1936 64.3579C64.721 62.8242 66.2764 60.3686 66.0218 59.8924C65.8706 59.6095 65.2547 59.4105 64.5303 59.4105C63.9892 59.4105 63.884 59.4602 63.4272 59.9312Z" fill="#F8E9DF"/>
</svg>
