<svg width="160" height="144" viewBox="0 0 160 144" fill="none" xmlns="http://www.w3.org/2000/svg">
<path fill-rule="evenodd" clip-rule="evenodd" d="M69.9375 25.9795C57.033 29.4449 41.9699 41.4887 34.5939 54.239C31.3074 59.9204 29.9773 65.3519 30.0003 72.9969C30.0175 78.6484 30.3126 80.8459 31.5362 84.4424C34.3441 92.6984 39.1843 100.085 46.5814 107.406C55.6615 116.394 64.2338 119.508 78.3014 118.927C100.496 118.011 118.248 106.507 125.622 88.2601C128.431 81.3088 129.323 75.7864 128.9 67.9532C127.808 47.6871 114.251 31.3417 94.314 26.2541C88.2591 24.709 75.2156 24.5615 69.9375 25.9795Z" fill="white"/>
<path fill-rule="evenodd" clip-rule="evenodd" d="M64.7459 46.2454C63.6227 46.5852 62.6251 48.1544 60.8887 52.3125C60.1259 54.1392 59.8469 54.8974 59.0832 57.2184C58.7341 58.2795 58.3536 59.2572 58.2377 59.3911C57.7266 59.9818 54.6766 62.7055 53.8817 63.2811C53.4003 63.6297 52.0142 64.6636 50.8017 65.5785C49.5892 66.4936 48.3723 67.3581 48.0976 67.4999C47.5618 67.7762 47.2416 68.1497 47.2416 68.498C47.2416 68.7957 47.6597 69.1998 47.9679 69.1998C48.2856 69.1998 49.7101 68.3349 50.9546 67.3866C51.4733 66.9914 52.6911 66.1033 53.6611 65.4129C55.5254 64.0861 56.4484 63.3616 57.1725 62.6561C57.4157 62.4193 57.6144 62.2776 57.6142 62.3413C57.6139 62.4049 57.5008 63.0311 57.3626 63.7327C57.2055 64.5309 57.1069 65.5086 57.0994 66.3448C57.0884 67.5496 57.1179 67.749 57.3987 68.3694C57.7774 69.2063 58.1802 69.5068 58.9062 69.4944C59.8547 69.4782 60.2529 69.1733 62.7304 66.566C64.0206 65.2081 65.1139 64.0972 65.16 64.0972C65.2062 64.0972 65.1455 64.521 65.0253 65.0388C64.5937 66.8974 64.8027 68.4338 65.5721 69.0576C65.9813 69.3892 66.9876 69.4169 67.616 69.1136C68.0614 68.8986 69.4777 67.516 70.0168 66.77C70.3469 66.3131 70.3275 66.2973 70.5703 67.2201C70.8554 68.3032 71.7593 68.8979 72.6854 68.6119C73.2887 68.4257 73.9561 67.8021 75.301 66.1679L76.4155 64.8137L76.4832 65.8917C76.5995 67.7428 77.1998 68.5909 78.3946 68.5919C79.2306 68.5926 79.7476 68.2552 81.3162 66.6853L82.7217 65.2786V66.092C82.7217 67.1826 82.9166 67.9141 83.3278 68.3679C83.6442 68.717 83.7138 68.7397 84.3073 68.6891C84.8311 68.6442 85.0455 68.5506 85.4974 68.1689C86.1507 67.6172 87.5865 65.9038 88.5059 64.5788L89.1625 63.6325L89.1542 65.3532C89.1482 66.5985 89.1907 67.1577 89.308 67.3775C89.7611 68.2267 90.3779 68.4988 91.2436 68.2314C91.6242 68.1139 92.1158 67.6835 93.5507 66.2114C94.5536 65.1825 95.3863 64.3543 95.401 64.3708C95.4158 64.3873 95.3761 64.7289 95.3127 65.1299C95.0877 66.5523 95.4244 67.81 96.1785 68.3634C96.4319 68.5494 96.7769 68.6572 97.2252 68.6907C98.3893 68.7775 99.2547 68.223 100.425 66.6402L101.051 65.7941L101.184 66.4767C101.342 67.2848 101.627 67.7248 102.179 68.015C102.722 68.3002 103.282 68.2829 103.931 67.961C104.518 67.67 106.922 65.3393 107.195 64.7969C107.498 64.195 107.171 63.6112 106.532 63.6112C106.37 63.6112 105.752 64.1358 104.806 65.0764C103.03 66.842 102.839 66.9002 102.784 65.6937C102.759 65.1532 102.844 64.5354 103.067 63.6361L103.385 62.3509L103.138 61.8573C103.002 61.5857 102.835 61.1397 102.767 60.866C102.595 60.177 102.028 59.4127 101.47 59.1193C100.396 58.5544 99.1686 58.9262 97.7076 60.259C97.2614 60.6662 96.4556 61.3272 95.9168 61.7281C95.378 62.129 94.007 63.4109 92.8701 64.5766L90.8032 66.6961L90.7176 66.2775C90.5602 65.5078 91.0108 62.2462 91.5559 60.2077C91.6724 59.7724 92.1928 58.5325 92.7123 57.4525C93.2319 56.3724 93.8033 55.0884 93.9821 54.5991C94.161 54.11 94.3524 53.6498 94.4077 53.5764C94.4717 53.4915 95.4109 53.4179 97.0028 53.373C99.2202 53.3107 99.5315 53.2768 99.8029 53.0682C100.294 52.6906 100.283 51.9241 99.7838 51.7508C99.4943 51.6503 97.681 51.6656 95.9346 51.7835C94.9021 51.8532 94.8313 51.8433 94.9066 51.6411C94.9511 51.5216 95.046 50.8995 95.1174 50.2585C95.2793 48.8045 95.1459 48.1546 94.6286 47.879C94.1634 47.631 93.892 47.6486 93.5192 47.9509C93.0098 48.3638 92.6762 49.1726 91.9637 51.7228C91.9167 51.8907 91.6829 51.9296 90.5015 51.9658C89.0227 52.011 88.8447 52.0765 88.6828 52.6347C88.6304 52.8152 88.6936 53.0001 88.8867 53.2315C89.1608 53.56 89.1905 53.5662 90.3581 53.5425L91.5498 53.5185L91.3204 54.343C91.1942 54.7966 90.8997 55.9603 90.666 56.9292C90.4321 57.8981 90.1856 58.8002 90.118 58.9338C89.6715 59.8167 87.0892 63.8396 86.4528 64.6439C85.5102 65.835 84.5818 66.8915 84.4777 66.8915C84.1814 66.8915 84.5337 63.6167 84.971 62.3065C85.2451 61.4856 85.2534 61.197 85.0136 60.844C84.7639 60.4765 84.1428 60.4782 83.8215 60.8473C83.6905 60.9977 83.3799 61.4723 83.1311 61.9021C82.2639 63.3997 79.6386 66.3417 78.748 66.8137C78.3805 67.0085 78.3651 67.0064 78.224 66.7404C78.0379 66.3897 78.044 64.7332 78.2366 63.3075C78.3949 62.1357 78.4317 62.0509 79.7092 59.9057C80.6843 58.2683 82.028 55.5324 82.5417 54.1388C83.0861 52.6622 83.3555 51.3257 83.3633 50.065C83.3715 48.7504 83.1328 48.0012 82.5331 47.4586C81.3299 46.3697 80.0667 47.5874 79.262 50.6117C79.0531 51.3966 77.8213 56.9491 77.2946 59.4805C76.9484 61.1439 76.8923 61.2971 76.2896 62.2262C75.5628 63.3466 72.8192 66.6971 72.4713 66.8889C71.8986 67.2048 71.8588 65.7543 72.3896 63.915C72.6787 62.9127 72.6478 62.3725 72.2934 62.2323C72.2071 62.1982 72.1017 61.9582 72.0593 61.699C71.9439 60.995 71.3477 60.0107 70.8177 59.6493C70.2194 59.2412 69.1551 59.2156 68.3108 59.589C66.9302 60.1998 64.7022 62.1343 61.6222 65.3965C59.5519 67.5893 59.0985 67.9837 58.8924 67.7712C58.69 67.5626 58.6342 66.1413 58.7856 65.0505C58.9476 63.8841 59.5555 61.0518 59.7597 60.5132C59.8356 60.3127 60.3521 59.6534 60.9073 59.048C62.8315 56.9501 65.1533 53.696 66.1031 51.7658C66.9151 50.1157 67.19 49.2312 67.1991 48.2394C67.205 47.5987 67.1527 47.3891 66.8817 46.9671C66.4002 46.217 65.6631 45.9679 64.7459 46.2454ZM64.9544 48.0022C64.577 48.2752 63.8585 49.575 62.9698 51.5925C62.079 53.6143 61.1083 56.0755 61.1747 56.1439C61.2298 56.2008 62.292 54.8117 63.2682 53.406C64.0519 52.2777 65.1305 50.1888 65.4463 49.1882C65.7894 48.1009 65.5651 47.5603 64.9544 48.0022ZM81.2582 49.6889C80.9218 50.4731 79.4785 56.5427 79.599 56.667C79.6697 56.7399 80.3655 55.2489 80.8981 53.8831C81.1739 53.176 81.4848 52.1721 81.5891 51.6522C81.8009 50.5965 81.8406 49.2075 81.6622 49.0939C81.5979 49.0529 81.4163 49.3208 81.2582 49.6889ZM84.9024 56.3687C84.4083 56.5906 84.2305 56.8524 84.2305 57.3586C84.2305 58.1312 84.9361 58.6539 85.5427 58.3306C85.9665 58.1048 86.3004 57.3032 86.1455 56.8833C86.0351 56.5837 85.5963 56.1964 85.3771 56.205C85.3105 56.2077 85.0969 56.2813 84.9024 56.3687ZM68.8904 61.6798C67.6566 62.5221 66.9169 63.7873 66.515 65.7429C66.2976 66.8006 66.293 67.2688 66.4975 67.5569C66.6526 67.7756 66.6713 67.7742 67.0817 67.5128C67.6156 67.1726 68.2411 66.4562 69.5553 64.6793L70.5927 63.2766L70.5117 62.6239C70.3396 61.236 69.9083 60.9848 68.8904 61.6798ZM98.8621 61.7585C97.7805 62.3232 97.0456 63.8252 96.9012 65.7665C96.8276 66.7554 96.9394 67.0132 97.4409 67.0125C98.1235 67.0115 98.7313 66.3569 100.565 63.6473L101.24 62.6508L101.051 62.2741C100.578 61.3308 99.96 61.1854 98.8621 61.7585Z" fill="black"/>
<path fill-rule="evenodd" clip-rule="evenodd" d="M64.3891 70.8436C63.8387 71.1164 63.3923 71.6758 63.0133 72.5676C62.7286 73.2379 61.2494 77.7418 60.5221 80.1533C59.9276 82.1239 59.6859 82.5434 57.9258 84.6575C55.9637 87.0142 54.8169 88.2666 54.0459 88.8946C52.3627 90.2653 51.3473 90.5589 50.7494 89.8475C50.0687 89.0377 50.0222 87.5433 50.6317 86.0578C51.067 84.9969 51.4383 84.6132 52.2895 84.3445L52.9812 84.1263L53.4526 84.5153C53.9715 84.9434 54.4077 85.0058 54.8266 84.7121C55.2259 84.4323 55.2021 83.6865 54.7778 83.1817C54.2969 82.6096 53.8643 82.4362 52.9187 82.4364C52.2388 82.4364 51.9289 82.5082 51.2791 82.8158C49.8674 83.4842 48.5501 84.4661 46.6977 86.2306C44.0241 88.7773 42.8174 89.6109 41.2938 89.963C40.4094 90.1674 40.1966 90.2859 40.058 90.6504C39.9077 91.0461 40.1361 91.5511 40.5076 91.6444C41.1485 91.8055 43.1577 91.0742 44.6292 90.1444C45.1731 89.8007 46.5101 88.6664 47.7461 87.5001L48.5914 86.7023L48.5041 87.4023C48.3876 88.3353 48.7149 89.8324 49.2045 90.6061C49.4067 90.9256 49.8269 91.3559 50.1386 91.5625C50.6065 91.8728 50.8294 91.9381 51.421 91.9381C51.8149 91.9381 52.3739 91.8456 52.6635 91.7325C54.0624 91.1864 55.7667 89.7747 57.5932 87.6494C58.1374 87.016 58.6043 86.5193 58.6305 86.5455C58.6567 86.5718 58.5196 87.1156 58.3258 87.7541C57.5906 90.1758 57.4934 90.6863 57.698 91.0529C57.9089 91.4308 58.5989 91.5661 58.9374 91.2958C59.0475 91.208 59.8664 90.0431 60.7573 88.7071C62.5898 85.9591 63.3109 85.1045 64.2121 84.6137C64.9793 84.1957 64.9652 84.0871 64.4675 86.5702C63.9629 89.0876 63.8827 90.2342 64.154 91.0519C64.6032 92.4057 65.8007 92.6964 66.9328 91.7264C67.2248 91.4762 67.7469 90.9311 68.0932 90.5148C69.4296 88.9083 70.5101 87.7485 70.5101 87.9207C70.5101 88.0196 70.4503 88.3796 70.3772 88.7207C70.1057 89.9877 70.8698 91.4228 71.9209 91.6202C72.6287 91.7532 73.3632 91.3422 74.4406 90.2103C74.9573 89.6674 75.4145 89.2233 75.4568 89.2233C75.4991 89.2233 75.5662 89.3868 75.6062 89.5866C75.7313 90.2131 76.2931 90.7193 76.9451 90.7928C77.4284 90.8474 77.6207 90.7975 78.194 90.4692C78.8265 90.107 80.8652 88.1138 80.8652 87.8577C80.8652 87.7943 80.9207 87.7425 80.9885 87.7425C81.0582 87.7425 81.1135 88.105 81.1158 88.5754C81.1221 89.8921 81.3138 91.0793 81.577 91.4322C81.7078 91.6075 81.9863 91.8002 82.1959 91.8604C82.7913 92.0313 83.3011 91.6706 84.7019 90.0871C86.1381 88.4635 86.7106 87.7147 87.2585 86.7427L87.6456 86.0563L88.2943 86.1101C88.7749 86.15 89.1909 86.0808 89.8993 85.8426C90.4254 85.6659 90.8772 85.5213 90.9033 85.5213C90.9296 85.5213 90.7629 85.9676 90.5331 86.513C89.4399 89.1077 89.4305 90.9477 90.5065 91.7345C90.7067 91.8809 91.1132 92.0013 91.522 92.0352C92.4902 92.1156 93.266 91.7076 94.43 90.5061C95.2296 89.6805 95.3588 89.5903 95.4699 89.7801C95.7831 90.3155 96.1932 90.6988 96.5949 90.8315C97.9211 91.2697 99.5368 90.0344 101.562 87.034C102.123 86.2032 102.641 85.4867 102.714 85.4418C102.931 85.3072 102.741 86.1638 102.072 88.3367C101.282 90.9014 101.27 91.2803 101.974 91.6442C102.507 91.9205 102.801 91.791 103.609 90.9232C106.137 88.207 108.774 85.6521 108.909 85.7873C108.939 85.8172 108.8 86.533 108.601 87.3782C108.099 89.5035 108.074 89.7976 108.325 90.5162C108.717 91.6327 109.739 91.9792 110.944 91.4033C111.405 91.1832 113.167 89.8882 113.623 89.4346C114.038 89.0218 114.1 88.4865 113.78 88.0799C113.418 87.6187 113.172 87.6539 112.404 88.2766C111.293 89.1781 110.164 89.9637 109.981 89.9637C109.844 89.9637 109.824 89.8392 109.889 89.3776C109.934 89.0551 110.023 88.6248 110.086 88.4212C110.267 87.8379 110.821 85.0741 110.821 84.7579C110.82 84.2423 110.382 83.6916 109.901 83.6013C108.999 83.4318 107.145 84.7032 105.187 86.8343C104.594 87.4795 104.092 87.956 104.071 87.893C104.05 87.8301 104.173 87.2368 104.345 86.5746C104.74 85.0522 104.765 83.8399 104.409 83.3879C104.04 82.9179 103.534 82.8547 102.839 83.1915C102.042 83.578 101.347 84.3301 100.187 86.063C99.0932 87.6976 98.4895 88.4045 97.7486 88.9185C97.0158 89.4269 96.935 89.2608 97.1959 87.7819C97.3134 87.1155 97.5201 86.3203 97.6551 86.0149C98.2111 84.7573 98.258 84.5431 98.0615 84.1626C97.9617 83.9694 97.7544 83.7733 97.6012 83.7271C97.4479 83.6809 97.1561 83.4887 96.9527 83.3003C96.4201 82.8067 95.8443 82.5478 95.1204 82.4767C94.4475 82.4106 92.9285 82.8496 90.3757 83.8482C89.7436 84.0955 89.0649 84.3301 88.8674 84.3696C88.5093 84.4413 88.5083 84.4399 88.5083 83.8271C88.5083 83.0465 88.1186 82.5596 87.4937 82.5596C86.6472 82.5596 86.0806 83.3884 86.2181 84.4256C86.3109 85.1261 86.2063 85.3736 85.2263 86.7723C84.6145 87.6456 83.1553 89.3608 82.9524 89.4451C82.7712 89.5205 82.6771 85.6283 82.8345 84.5689C82.9679 83.6712 82.9626 83.5063 82.7923 83.246C82.2845 82.4702 81.5713 82.7736 81.0487 83.988C80.2998 85.7281 79.4794 87.0313 78.5105 88.0201C77.9951 88.5462 77.4749 88.9765 77.3543 88.9765C77.1583 88.9765 77.1412 88.8749 77.191 88.0129C77.2351 87.2499 77.3303 86.8776 77.6482 86.2243C78.0696 85.3586 78.0892 84.8394 77.7123 84.5263C77.6142 84.4447 77.4308 84.1494 77.3048 83.8699C76.782 82.7101 75.8475 82.2885 74.5338 82.6197C73.3806 82.9105 72.3613 83.4645 71.4618 84.2896C70.6891 84.9984 67.9559 88.018 66.5774 89.6861C66.2268 90.1103 65.8783 90.4573 65.8029 90.4573C65.6242 90.4573 65.7512 88.5995 66.0052 87.4957C66.3565 85.9706 66.6042 84.102 66.5171 83.6367C66.3913 82.966 65.9876 82.5579 65.3673 82.4746C64.94 82.4172 64.6884 82.4813 63.9499 82.8353C62.9475 83.3158 62.1504 83.9737 61.2319 85.0786C60.8924 85.487 60.6465 85.7119 60.6853 85.5787C61.4999 82.784 61.6118 82.533 62.9405 80.5235C64.3132 78.4474 65.9132 75.392 66.3227 74.0647C66.7837 72.5706 66.5687 71.4408 65.7149 70.8699C65.1999 70.5254 65.0378 70.5222 64.3891 70.8436ZM64.3302 73.8674C64.0841 74.542 63.8431 75.2327 63.7949 75.4024C63.7106 75.6987 63.7143 75.701 63.8879 75.4641C64.2023 75.0344 64.8527 73.2693 64.8145 72.9488C64.7888 72.7326 64.6445 73.0062 64.3302 73.8674ZM74.294 84.6607C73.8857 84.982 72.9614 86.3753 72.5746 87.2525C71.9862 88.5863 71.8464 89.8403 72.2859 89.8403C72.6137 89.8403 75.3331 86.7998 75.8054 85.9054C75.9767 85.581 75.9076 84.8611 75.6785 84.5848C75.4633 84.3251 74.6645 84.369 74.294 84.6607ZM93.4272 84.9314C92.3454 86.0475 91.0829 89.3544 91.4395 90.138C91.6611 90.6245 92.1476 90.4082 93.1936 89.3581C94.721 87.8244 96.2764 85.3687 96.0218 84.8925C95.8706 84.6097 95.2547 84.4107 94.5303 84.4107C93.9892 84.4107 93.884 84.4604 93.4272 84.9314Z" fill="black"/>
</svg>
