<svg width="195" height="144" viewBox="0 0 195 144" fill="none" xmlns="http://www.w3.org/2000/svg">
<path fill-rule="evenodd" clip-rule="evenodd" d="M69.9375 25.9795C57.033 29.4449 41.9699 41.4887 34.5939 54.239C31.3074 59.9204 29.9773 65.3519 30.0003 72.9969C30.0175 78.6484 30.3126 80.8459 31.5362 84.4424C34.3441 92.6984 39.1843 100.085 46.5814 107.406C55.6615 116.394 64.2338 119.508 78.3014 118.927C100.496 118.011 118.248 106.507 125.622 88.2601C128.431 81.3089 129.323 75.7864 128.9 67.9532C127.808 47.6871 114.251 31.3417 94.314 26.2542C88.2591 24.709 75.2156 24.5615 69.9375 25.9795Z" fill="black"/>
<path fill-rule="evenodd" clip-rule="evenodd" d="M64.7458 46.245C63.6226 46.5848 62.625 48.154 60.8886 52.3121C60.1258 54.1388 59.8468 54.897 59.0831 57.218C58.734 58.2791 58.3535 59.2568 58.2376 59.3907C57.7265 59.9814 54.6765 62.7051 53.8815 63.2807C53.4001 63.6293 52.0141 64.6632 50.8016 65.5781C49.589 66.4932 48.3722 67.3577 48.0975 67.4995C47.5617 67.7758 47.2415 68.1492 47.2415 68.4976C47.2415 68.7953 47.6596 69.1994 47.9678 69.1994C48.2855 69.1994 49.71 68.3345 50.9545 67.3862C51.4731 66.9909 52.691 66.1028 53.661 65.4125C55.5253 64.0857 56.4483 63.3612 57.1724 62.6557C57.4155 62.4189 57.6143 62.2772 57.614 62.3409C57.6138 62.4045 57.5006 63.0307 57.3625 63.7323C57.2054 64.5305 57.1068 65.5081 57.0993 66.3444C57.0883 67.5492 57.1178 67.7486 57.3986 68.369C57.7773 69.2059 58.1801 69.5064 58.9061 69.494C59.8546 69.4777 60.2528 69.1729 62.7303 66.5656C64.0205 65.2077 65.1138 64.0968 65.1599 64.0968C65.2061 64.0968 65.1454 64.5205 65.0251 65.0383C64.5936 66.897 64.8026 68.4334 65.572 69.0571C65.9812 69.3888 66.9875 69.4165 67.6159 69.1132C68.0612 68.8982 69.4776 67.5155 70.0166 66.7696C70.3468 66.3127 70.3274 66.2969 70.5702 67.2197C70.8553 68.3028 71.7592 68.8975 72.6853 68.6115C73.2886 68.4253 73.956 67.8017 75.3008 66.1675L76.4153 64.8133L76.4831 65.8913C76.5993 67.7424 77.1997 68.5905 78.3944 68.5915C79.2305 68.5922 79.7475 68.2548 81.3161 66.6849L82.7216 65.2782V66.0915C82.7216 67.1822 82.9165 67.9137 83.3277 68.3674C83.6441 68.7166 83.7136 68.7393 84.3071 68.6887C84.831 68.6438 85.0454 68.5502 85.4973 68.1684C86.1506 67.6167 87.5864 65.9034 88.5058 64.5784L89.1624 63.6321L89.1541 65.3528C89.1481 66.598 89.1905 67.1573 89.3078 67.377C89.7609 68.2263 90.3778 68.4984 91.2434 68.231C91.6241 68.1135 92.1157 67.6831 93.5506 66.211C94.5535 65.1821 95.3861 64.3539 95.4009 64.3704C95.4157 64.3869 95.376 64.7285 95.3126 65.1295C95.0876 66.5519 95.4243 67.8096 96.1784 68.3629C96.4318 68.5489 96.7768 68.6568 97.2251 68.6902C98.3892 68.7771 99.2545 68.2226 100.425 66.6398L101.051 65.7936L101.184 66.4763C101.342 67.2843 101.627 67.7244 102.179 68.0146C102.722 68.2998 103.282 68.2825 103.931 67.9606C104.518 67.6696 106.922 65.3389 107.195 64.7965C107.497 64.1946 107.171 63.6108 106.532 63.6108C106.37 63.6108 105.752 64.1354 104.806 65.076C103.03 66.8416 102.839 66.8998 102.784 65.6933C102.759 65.1528 102.844 64.535 103.067 63.6357L103.385 62.3505L103.138 61.8568C103.002 61.5853 102.835 61.1393 102.767 60.8656C102.595 60.1766 102.028 59.4123 101.47 59.1189C100.396 58.554 99.1685 58.9258 97.7074 60.2586C97.2613 60.6657 96.4555 61.3268 95.9167 61.7277C95.3779 62.1286 94.0069 63.4105 92.87 64.5762L90.8031 66.6957L90.7175 66.2771C90.5601 65.5074 91.0106 62.2457 91.5558 60.2072C91.6723 59.7719 92.1927 58.5321 92.7122 57.4521C93.2317 56.372 93.8032 55.088 93.982 54.5987C94.1608 54.1096 94.3523 53.6494 94.4075 53.576C94.4715 53.4911 95.4108 53.4175 97.0027 53.3726C99.2201 53.3103 99.5314 53.2764 99.8028 53.0678C100.294 52.6902 100.283 51.9237 99.7837 51.7504C99.4942 51.6499 97.6809 51.6652 95.9345 51.783C94.902 51.8528 94.8312 51.8429 94.9065 51.6407C94.9509 51.5212 95.0458 50.8991 95.1173 50.2581C95.2792 48.8041 95.1458 48.1542 94.6284 47.8786C94.1633 47.6306 93.8918 47.6482 93.5191 47.9505C93.0097 48.3634 92.6761 49.1722 91.9635 51.7224C91.9166 51.8903 91.6828 51.9292 90.5014 51.9654C89.0226 52.0106 88.8446 52.0761 88.6826 52.6343C88.6303 52.8147 88.6935 52.9997 88.8865 53.2311C89.1607 53.5596 89.1904 53.5658 90.358 53.5421L91.5497 53.5181L91.3203 54.3426C91.1941 54.7961 90.8996 55.9599 90.6659 56.9288C90.432 57.8977 90.1855 58.7998 90.1179 58.9334C89.6714 59.8163 87.0891 63.8392 86.4527 64.6435C85.51 65.8346 84.5817 66.8911 84.4776 66.8911C84.1812 66.8911 84.5336 63.6163 84.9709 62.3061C85.2449 61.4852 85.2533 61.1965 85.0134 60.8436C84.7638 60.4761 84.1427 60.4778 83.8214 60.8469C83.6904 60.9973 83.3798 61.4718 83.131 61.9017C82.2638 63.3993 79.6385 66.3413 78.7478 66.8133C78.3804 67.0081 78.365 67.006 78.2239 66.7399C78.0378 66.3893 78.0439 64.7328 78.2365 63.3071C78.3948 62.1353 78.4316 62.0505 79.7091 59.9053C80.6841 58.2679 82.0279 55.532 82.5416 54.1384C83.086 52.6618 83.3554 51.3253 83.3632 50.0646C83.3713 48.75 83.1326 48.0008 82.533 47.4582C81.3297 46.3693 80.0666 47.587 79.2619 50.6113C79.053 51.3962 77.8212 56.9487 77.2944 59.4801C76.9482 61.1435 76.8921 61.2967 76.2894 62.2258C75.5626 63.3462 72.8191 66.6967 72.4711 66.8885C71.8985 67.2044 71.8587 65.7539 72.3895 63.9145C72.6786 62.9122 72.6477 62.3721 72.2933 62.2319C72.207 62.1978 72.1016 61.9578 72.0592 61.6985C71.9438 60.9946 71.3476 60.0103 70.8176 59.6489C70.2193 59.2408 69.155 59.2151 68.3107 59.5886C66.9301 60.1993 64.7021 62.1339 61.6221 65.3961C59.5518 67.5889 59.0984 67.9833 58.8923 67.7708C58.6899 67.5622 58.6341 66.1409 58.7855 65.0501C58.9474 63.8837 59.5554 61.0514 59.7596 60.5128C59.8355 60.3123 60.352 59.653 60.9072 59.0476C62.8314 56.9497 65.1532 53.6956 66.103 51.7654C66.915 50.1153 67.1899 49.2308 67.199 48.239C67.2049 47.5983 67.1525 47.3887 66.8815 46.9666C66.4 46.2166 65.663 45.9675 64.7458 46.245ZM64.9543 48.0018C64.5769 48.2747 63.8584 49.5746 62.9697 51.5921C62.0789 53.6139 61.1082 56.0751 61.1745 56.1435C61.2297 56.2003 62.2919 54.8113 63.2681 53.4056C64.0517 52.2773 65.1304 50.1883 65.4462 49.1877C65.7893 48.1005 65.565 47.5599 64.9543 48.0018ZM81.2581 49.6885C80.9217 50.4726 79.4784 56.5423 79.5989 56.6666C79.6696 56.7395 80.3654 55.2485 80.898 53.8827C81.1738 53.1756 81.4846 52.1717 81.589 51.6518C81.8008 50.5961 81.8405 49.2071 81.662 49.0935C81.5978 49.0525 81.4162 49.3204 81.2581 49.6885ZM84.9023 56.3682C84.4082 56.5902 84.2304 56.852 84.2304 57.3582C84.2304 58.1308 84.936 58.6535 85.5426 58.3302C85.9663 58.1044 86.3003 57.3028 86.1454 56.8829C86.0349 56.5833 85.5962 56.196 85.377 56.2046C85.3104 56.2073 85.0968 56.2809 84.9023 56.3682ZM68.8902 61.6794C67.6565 62.5216 66.9168 63.7869 66.5148 65.7425C66.2975 66.8002 66.2929 67.2684 66.4974 67.5565C66.6525 67.7752 66.6711 67.7738 67.0816 67.5124C67.6154 67.1722 68.241 66.4558 69.5552 64.6788L70.5926 63.2762L70.5116 62.6235C70.3395 61.2355 69.9082 60.9844 68.8902 61.6794ZM98.862 61.7581C97.7804 62.3228 97.0455 63.8248 96.9011 65.7661C96.8275 66.755 96.9392 67.0128 97.4408 67.0121C98.1234 67.0111 98.7312 66.3565 100.565 63.6469L101.24 62.6504L101.051 62.2737C100.577 61.3304 99.9599 61.185 98.862 61.7581Z" fill="white"/>
<path fill-rule="evenodd" clip-rule="evenodd" d="M64.3891 70.8434C63.8387 71.1162 63.3923 71.6756 63.0133 72.5674C62.7286 73.2377 61.2494 77.7416 60.5221 80.1531C59.9276 82.1237 59.6859 82.5432 57.9258 84.6573C55.9637 87.014 54.8169 88.2664 54.0459 88.8944C52.3627 90.2651 51.3473 90.5587 50.7494 89.8473C50.0687 89.0375 50.0222 87.5431 50.6317 86.0576C51.067 84.9968 51.4383 84.613 52.2895 84.3443L52.9812 84.1262L53.4526 84.5151C53.9715 84.9432 54.4077 85.0056 54.8266 84.712C55.2259 84.4321 55.2021 83.6864 54.7778 83.1815C54.2969 82.6094 53.8643 82.4361 52.9187 82.4362C52.2388 82.4362 51.9289 82.508 51.2791 82.8156C49.8674 83.484 48.5501 84.4659 46.6977 86.2304C44.0241 88.7772 42.8174 89.6107 41.2938 89.9628C40.4094 90.1673 40.1966 90.2857 40.058 90.6503C39.9077 91.0459 40.1361 91.551 40.5076 91.6443C41.1485 91.8053 43.1577 91.074 44.6292 90.1442C45.1731 89.8005 46.5101 88.6662 47.7461 87.5L48.5914 86.7022L48.5041 87.4021C48.3876 88.3351 48.7149 89.8322 49.2045 90.606C49.4067 90.9254 49.8269 91.3557 50.1386 91.5623C50.6065 91.8727 50.8294 91.938 51.421 91.938C51.8149 91.938 52.3739 91.8454 52.6635 91.7324C54.0624 91.1862 55.7667 89.7745 57.5932 87.6493C58.1374 87.0159 58.6043 86.5192 58.6305 86.5453C58.6567 86.5716 58.5196 87.1154 58.3258 87.7539C57.5906 90.1757 57.4934 90.6862 57.698 91.0527C57.9089 91.4307 58.5989 91.5659 58.9374 91.2957C59.0475 91.2078 59.8664 90.0429 60.7573 88.7069C62.5898 85.9589 63.3109 85.1044 64.2121 84.6135C64.9793 84.1955 64.9652 84.0869 64.4675 86.57C63.9629 89.0874 63.8827 90.234 64.154 91.0517C64.6032 92.4055 65.8007 92.6963 66.9328 91.7262C67.2248 91.4761 67.7469 90.9309 68.0932 90.5146C69.4296 88.9081 70.5101 87.7484 70.5101 87.9205C70.5101 88.0195 70.4503 88.3794 70.3772 88.7205C70.1057 89.9875 70.8698 91.4226 71.9209 91.6201C72.6287 91.753 73.3632 91.342 74.4406 90.2101C74.9573 89.6672 75.4145 89.2231 75.4568 89.2231C75.499 89.2231 75.5662 89.3866 75.6062 89.5864C75.7313 90.2129 76.2931 90.7191 76.9451 90.7927C77.4284 90.8472 77.6207 90.7974 78.194 90.469C78.8265 90.1068 80.8652 88.1136 80.8652 87.8576C80.8652 87.7941 80.9207 87.7423 80.9885 87.7423C81.0582 87.7423 81.1135 88.1049 81.1158 88.5753C81.1221 89.892 81.3138 91.0791 81.577 91.432C81.7078 91.6074 81.9863 91.8 82.1959 91.8602C82.7913 92.0311 83.3011 91.6704 84.7019 90.0869C86.1381 88.4633 86.7106 87.7145 87.2585 86.7425L87.6456 86.0562L88.2943 86.11C88.7749 86.1498 89.1909 86.0806 89.8993 85.8424C90.4254 85.6657 90.8772 85.5211 90.9033 85.5211C90.9296 85.5211 90.7629 85.9674 90.5331 86.5129C89.4399 89.1075 89.4305 90.9475 90.5065 91.7343C90.7067 91.8807 91.1132 92.0011 91.522 92.0351C92.4902 92.1154 93.266 91.7074 94.43 90.5059C95.2296 89.6803 95.3588 89.5901 95.4699 89.7799C95.7831 90.3154 96.1932 90.6986 96.5949 90.8313C97.9211 91.2695 99.5368 90.0342 101.562 87.0339C102.123 86.203 102.641 85.4865 102.714 85.4416C102.931 85.307 102.741 86.1636 102.072 88.3365C101.282 90.9013 101.27 91.2801 101.974 91.644C102.507 91.9203 102.801 91.7909 103.609 90.923C106.137 88.2068 108.774 85.6519 108.909 85.7871C108.939 85.817 108.8 86.5329 108.601 87.378C108.099 89.5034 108.074 89.7974 108.325 90.516C108.717 91.6325 109.739 91.979 110.944 91.4031C111.405 91.183 113.167 89.888 113.623 89.4344C114.038 89.0216 114.1 88.4863 113.78 88.0797C113.418 87.6185 113.172 87.6537 112.404 88.2764C111.293 89.178 110.164 89.9635 109.981 89.9635C109.844 89.9635 109.824 89.839 109.889 89.3774C109.934 89.0549 110.023 88.6246 110.086 88.421C110.267 87.8377 110.821 85.0739 110.821 84.7577C110.82 84.2422 110.382 83.6914 109.901 83.6011C108.999 83.4317 107.145 84.7031 105.187 86.8341C104.594 87.4793 104.092 87.9558 104.071 87.8929C104.05 87.8299 104.173 87.2366 104.345 86.5744C104.74 85.052 104.765 83.8398 104.409 83.3877C104.04 82.9177 103.534 82.8545 102.839 83.1913C102.042 83.5778 101.347 84.3299 100.187 86.0628C99.0932 87.6974 98.4895 88.4044 97.7486 88.9183C97.0158 89.4267 96.935 89.2606 97.1959 87.7817C97.3134 87.1153 97.5201 86.3201 97.6551 86.0147C98.2111 84.7571 98.258 84.5429 98.0615 84.1624C97.9617 83.9692 97.7544 83.7731 97.6012 83.727C97.4479 83.6807 97.1561 83.4886 96.9527 83.3001C96.4201 82.8065 95.8443 82.5476 95.1204 82.4765C94.4475 82.4104 92.9285 82.8495 90.3757 83.848C89.7436 84.0953 89.0649 84.3299 88.8674 84.3694C88.5093 84.4411 88.5083 84.4397 88.5083 83.8269C88.5083 83.0463 88.1186 82.5595 87.4937 82.5595C86.6472 82.5595 86.0806 83.3882 86.2181 84.4254C86.3109 85.126 86.2063 85.3734 85.2263 86.7721C84.6145 87.6454 83.1553 89.3606 82.9524 89.4449C82.7712 89.5203 82.6771 85.6281 82.8346 84.5687C82.9679 83.6711 82.9626 83.5061 82.7923 83.2458C82.2845 82.47 81.5713 82.7734 81.0487 83.9878C80.2998 85.7279 79.4794 87.0312 78.5105 88.02C77.9951 88.546 77.4749 88.9763 77.3543 88.9763C77.1583 88.9763 77.1412 88.8748 77.191 88.0127C77.2351 87.2497 77.3303 86.8774 77.6482 86.2241C78.0696 85.3585 78.0892 84.8392 77.7123 84.5261C77.6142 84.4445 77.4308 84.1492 77.3048 83.8697C76.782 82.7099 75.8475 82.2884 74.5338 82.6196C73.3806 82.9103 72.3613 83.4644 71.4618 84.2894C70.6891 84.9982 67.9559 88.0179 66.5774 89.6859C66.2268 90.1101 65.8783 90.4571 65.8029 90.4571C65.6242 90.4571 65.7512 88.5993 66.0052 87.4955C66.3565 85.9704 66.6042 84.1019 66.5171 83.6365C66.3913 82.9658 65.9876 82.5577 65.3673 82.4744C64.94 82.4171 64.6884 82.4811 63.9499 82.8351C62.9475 83.3157 62.1504 83.9735 61.2319 85.0785C60.8924 85.4868 60.6465 85.7117 60.6853 85.5785C61.4999 82.7838 61.6118 82.5328 62.9405 80.5233C64.3132 78.4472 65.9132 75.3918 66.3227 74.0645C66.7837 72.5704 66.5687 71.4407 65.7149 70.8697C65.1999 70.5253 65.0378 70.5221 64.3891 70.8434ZM64.3302 73.8672C64.0841 74.5418 63.8431 75.2325 63.7949 75.4022C63.7106 75.6985 63.7143 75.7008 63.8879 75.4639C64.2023 75.0342 64.8527 73.2691 64.8145 72.9486C64.7888 72.7324 64.6445 73.006 64.3302 73.8672ZM74.294 84.6605C73.8857 84.9818 72.9614 86.3752 72.5746 87.2523C71.9862 88.5861 71.8464 89.8401 72.2859 89.8401C72.6137 89.8401 75.3331 86.7997 75.8054 85.9052C75.9767 85.5808 75.9076 84.8609 75.6785 84.5846C75.4633 84.325 74.6645 84.3688 74.294 84.6605ZM93.4272 84.9312C92.3454 86.0473 91.0829 89.3542 91.4395 90.1378C91.6611 90.6243 92.1476 90.408 93.1936 89.3579C94.721 87.8243 96.2764 85.3686 96.0218 84.8924C95.8706 84.6095 95.2547 84.4105 94.5303 84.4105C93.9892 84.4105 93.884 84.4602 93.4272 84.9312Z" fill="white"/>
</svg>
