<svg width="178" height="169" viewBox="0 0 178 169" fill="none" xmlns="http://www.w3.org/2000/svg">
<path fill-rule="evenodd" clip-rule="evenodd" d="M71.8069 1.76104C48.6047 7.99183 21.5217 29.6464 8.25974 52.5711C2.35064 62.7862 -0.0407263 72.552 0.000523954 86.2974C0.0314616 96.4588 0.561985 100.41 2.762 106.876C7.81057 121.72 16.5132 135.002 29.813 148.165C46.1389 164.324 61.5516 169.923 86.8448 168.879C126.751 167.233 158.667 146.549 171.926 113.74C176.978 101.242 178.581 91.3129 177.821 77.229C175.857 40.7909 151.482 11.4022 115.635 2.25493C104.749 -0.523206 81.2967 -0.788443 71.8069 1.76104Z" fill="#32439E"/>
<path fill-rule="evenodd" clip-rule="evenodd" d="M62.4724 38.198C60.4529 38.809 58.6593 41.6304 55.5373 49.1067C54.1658 52.3909 53.6642 53.7542 52.291 57.9272C51.6633 59.835 50.9792 61.593 50.7708 61.8338C49.8519 62.8958 44.368 67.793 42.9388 68.828C42.0732 69.4547 39.5811 71.3136 37.4011 72.9586C35.2209 74.6039 33.0331 76.1583 32.5391 76.4132C31.5758 76.91 31 77.5814 31 78.2077C31 78.7431 31.7517 79.4696 32.3059 79.4696C32.8771 79.4696 35.4384 77.9146 37.676 76.2094C38.6085 75.4988 40.7982 73.9021 42.5422 72.6609C45.8942 70.2753 47.5536 68.9726 48.8556 67.7041C49.2928 67.2783 49.6501 67.0236 49.6497 67.1381C49.6493 67.2526 49.4458 68.3784 49.1974 69.6399C48.9149 71.075 48.7377 72.8328 48.7242 74.3363C48.7045 76.5026 48.7574 76.861 49.2623 77.9766C49.9432 79.4812 50.6674 80.0216 51.9727 79.9993C53.6782 79.9701 54.3941 79.422 58.8485 74.7341C61.1684 72.2926 63.1341 70.2952 63.217 70.2952C63.3 70.2952 63.1909 71.0571 62.9747 71.9881C62.1988 75.33 62.5746 78.0924 63.9579 79.2138C64.6937 79.8102 66.503 79.86 67.6328 79.3145C68.4335 78.9281 70.9802 76.4421 71.9493 75.1009C72.543 74.2793 72.508 74.2509 72.9446 75.9102C73.4573 77.8576 75.0824 78.9268 76.7476 78.4126C77.8322 78.0777 79.0322 76.9565 81.4502 74.0183L83.454 71.5836L83.5759 73.5218C83.7849 76.8499 84.8643 78.3748 87.0124 78.3766C88.5157 78.3779 89.4452 77.7713 92.2655 74.9486L94.7926 72.4193V73.8818C94.7926 75.8427 95.1429 77.1579 95.8824 77.9738C96.4512 78.6016 96.5762 78.6424 97.6433 78.5513C98.5852 78.4707 98.9707 78.3023 99.7833 77.616C100.958 76.624 103.539 73.5434 105.192 71.1611L106.373 69.4597L106.358 72.5534C106.347 74.7924 106.424 75.7979 106.634 76.193C107.449 77.7199 108.558 78.2092 110.115 77.7285C110.799 77.5172 111.683 76.7433 114.263 74.0965C116.066 72.2465 117.563 70.7574 117.59 70.7871C117.616 70.8168 117.545 71.4311 117.431 72.1519C117.026 74.7094 117.632 76.9707 118.988 77.9657C119.443 78.3001 120.064 78.4941 120.87 78.5542C122.963 78.7103 124.518 77.7134 126.623 74.8676L127.749 73.3461L127.988 74.5735C128.272 76.0264 128.784 76.8176 129.777 77.3394C130.752 77.8521 131.76 77.8211 132.927 77.2422C133.982 76.719 138.304 72.5285 138.795 71.5532C139.339 70.471 138.752 69.4214 137.603 69.4214C137.312 69.4214 136.201 70.3647 134.5 72.0558C131.306 75.2304 130.963 75.335 130.864 73.1657C130.819 72.1939 130.972 71.0831 131.372 69.4662L131.944 67.1554L131.501 66.2679C131.257 65.7796 130.956 64.9778 130.834 64.4856C130.525 63.2468 129.505 61.8726 128.502 61.3451C126.57 60.3294 124.364 60.9978 121.737 63.3943C120.935 64.1263 119.486 65.3148 118.517 66.0356C117.548 66.7565 115.083 69.0612 113.039 71.1572L109.323 74.968L109.169 74.2153C108.886 72.8315 109.696 66.9671 110.676 63.3019C110.886 62.5192 111.821 60.2901 112.755 58.3481C113.69 56.4062 114.717 54.0975 115.039 53.2179C115.36 52.3385 115.704 51.511 115.804 51.3791C115.919 51.2264 117.607 51.094 120.47 51.0134C124.457 50.9013 125.016 50.8404 125.504 50.4653C126.387 49.7864 126.367 48.4083 125.47 48.0966C124.949 47.9159 121.689 47.9435 118.549 48.1553C116.693 48.2807 116.565 48.263 116.701 47.8993C116.781 47.6846 116.951 46.566 117.08 45.4135C117.371 42.7992 117.131 41.6308 116.201 41.1352C115.365 40.6893 114.876 40.721 114.206 41.2645C113.29 42.007 112.691 43.4611 111.409 48.0464C111.325 48.3482 110.905 48.4181 108.781 48.4832C106.122 48.5645 105.802 48.6822 105.51 49.686C105.416 50.0103 105.53 50.3428 105.877 50.7589C106.37 51.3496 106.423 51.3607 108.523 51.3181L110.665 51.2749L110.253 52.7574C110.026 53.5728 109.496 55.6653 109.076 57.4073C108.656 59.1494 108.213 60.7713 108.091 61.0116C107.288 62.599 102.645 69.8321 101.501 71.2782C99.8061 73.4198 98.1369 75.3193 97.9498 75.3193C97.417 75.3193 98.0505 69.4313 98.8368 67.0756C99.3295 65.5996 99.3445 65.0806 98.9133 64.4461C98.4644 63.7853 97.3477 63.7884 96.77 64.452C96.5345 64.7224 95.976 65.5756 95.5286 66.3485C93.9694 69.0411 89.2492 74.3309 87.6478 75.1795C86.9872 75.5297 86.9595 75.5259 86.7058 75.0476C86.3711 74.4171 86.3821 71.4387 86.7285 68.8754C87.0131 66.7685 87.0792 66.616 89.3762 62.7591C91.1293 59.815 93.5454 54.8959 94.469 52.3902C95.4477 49.7353 95.9322 47.3323 95.9462 45.0655C95.9608 42.702 95.5316 41.3549 94.4535 40.3794C92.2901 38.4215 90.019 40.6109 88.5721 46.0485C88.1965 47.4598 85.9818 57.4431 85.0347 61.9945C84.4122 64.9852 84.3113 65.2606 83.2277 66.9312C81.9209 68.9457 76.9881 74.9698 76.3625 75.3147C75.3329 75.8826 75.2613 73.2747 76.2156 69.9675C76.7355 68.1654 76.6799 67.1942 76.0427 66.9422C75.8875 66.8808 75.6981 66.4494 75.6218 65.9832C75.4143 64.7176 74.3423 62.9478 73.3894 62.2979C72.3137 61.5642 70.4001 61.5181 68.882 62.1896C66.3998 63.2877 62.3938 66.7659 56.8561 72.6314C53.1337 76.574 52.3186 77.2831 51.9479 76.901C51.584 76.5259 51.4838 73.9704 51.7559 72.0093C52.0471 69.9121 53.1403 64.8196 53.5073 63.8513C53.6438 63.4908 54.5725 62.3054 55.5707 61.2169C59.0304 57.4449 63.2049 51.594 64.9127 48.1237C66.3727 45.1568 66.8669 43.5664 66.8832 41.7833C66.8938 40.6312 66.7997 40.2544 66.3125 39.4956C65.4467 38.1469 64.1215 37.6991 62.4724 38.198ZM62.8473 41.3567C62.1687 41.8475 60.877 44.1846 59.279 47.812C57.6774 51.4472 55.9321 55.8724 56.0514 55.9953C56.1506 56.0976 58.0604 53.6002 59.8156 51.0726C61.2246 49.044 63.164 45.2881 63.7317 43.4891C64.3487 41.5343 63.9454 40.5622 62.8473 41.3567ZM92.1612 44.3895C91.5563 45.7993 88.9614 56.7125 89.178 56.9359C89.3052 57.067 90.5562 54.3861 91.5137 51.9304C92.0097 50.6591 92.5685 48.8541 92.7561 47.9194C93.137 46.0212 93.2084 43.5238 92.8875 43.3196C92.772 43.2459 92.4454 43.7276 92.1612 44.3895ZM98.7134 56.3994C97.825 56.7985 97.5054 57.2693 97.5054 58.1793C97.5054 59.5686 98.774 60.5083 99.8646 59.927C100.627 59.5209 101.227 58.0797 100.948 57.3247C100.75 56.7861 99.9611 56.0897 99.5669 56.1052C99.4471 56.11 99.0631 56.2424 98.7134 56.3994ZM69.9241 65.9487C67.7058 67.4631 66.3759 69.738 65.6532 73.2542C65.2623 75.1559 65.2541 75.9978 65.6218 76.5157C65.9007 76.9089 65.9342 76.9065 66.6721 76.4364C67.632 75.8248 68.7567 74.5366 71.1196 71.3417L72.9849 68.8199L72.8393 67.6462C72.5298 65.1508 71.7544 64.6992 69.9241 65.9487ZM123.813 66.0903C121.868 67.1056 120.547 69.8061 120.287 73.2966C120.155 75.0746 120.356 75.5382 121.257 75.5369C122.485 75.5351 123.577 74.3582 126.875 69.4863L128.088 67.6947L127.748 67.0173C126.897 65.3214 125.787 65.0599 123.813 66.0903Z" fill="#FDF7EA"/>
<path fill-rule="evenodd" clip-rule="evenodd" d="M61.8309 82.4255C60.8413 82.916 60.0387 83.9218 59.3573 85.5253C58.8453 86.7305 56.1858 94.8284 54.8781 99.1642C53.8093 102.707 53.3747 103.461 50.21 107.263C46.6823 111.5 44.6203 113.752 43.2341 114.881C40.2077 117.345 38.382 117.873 37.307 116.594C36.0831 115.138 35.9995 112.451 37.0954 109.78C37.878 107.873 38.5456 107.183 40.0761 106.7L41.3197 106.308L42.1673 107.007C43.1002 107.777 43.8846 107.889 44.6378 107.361C45.3557 106.858 45.3129 105.517 44.55 104.609C43.6854 103.581 42.9076 103.269 41.2074 103.269C39.985 103.269 39.4278 103.398 38.2595 103.951C35.7212 105.153 33.3526 106.918 30.0222 110.091C25.2151 114.67 23.0454 116.169 20.3061 116.802C18.716 117.169 18.3332 117.382 18.0841 118.038C17.8139 118.749 18.2246 119.657 18.8924 119.825C20.0448 120.115 23.6574 118.8 26.303 117.128C27.2809 116.51 29.6848 114.471 31.9071 112.374L33.4269 110.939L33.27 112.198C33.0605 113.875 33.649 116.567 34.5294 117.958C34.8929 118.533 35.6485 119.306 36.2088 119.678C37.0502 120.236 37.4509 120.353 38.5146 120.353C39.2227 120.353 40.2279 120.187 40.7485 119.983C43.2638 119.001 46.3281 116.463 49.612 112.642C50.5905 111.503 51.4299 110.61 51.4771 110.657C51.5241 110.704 51.2777 111.682 50.9292 112.83C49.6073 117.184 49.4327 118.102 49.8004 118.761C50.1796 119.441 51.4202 119.684 52.0288 119.198C52.2267 119.04 53.6991 116.946 55.301 114.544C58.5958 109.603 59.8924 108.066 61.5126 107.184C62.8922 106.432 62.8667 106.237 61.9719 110.702C61.0647 115.228 60.9204 117.289 61.4082 118.76C62.2159 121.194 64.369 121.716 66.4044 119.972C66.9294 119.523 67.8681 118.542 68.4907 117.794C70.8936 114.905 72.8363 112.82 72.8363 113.13C72.8363 113.308 72.7288 113.955 72.5974 114.568C72.1093 116.846 73.4831 119.427 75.3729 119.782C76.6456 120.02 77.9661 119.282 79.9033 117.246C80.8322 116.27 81.6543 115.472 81.7304 115.472C81.8064 115.472 81.9272 115.766 81.999 116.125C82.224 117.251 83.234 118.162 84.4063 118.294C85.2754 118.392 85.6211 118.302 86.6518 117.712C87.7891 117.061 91.4547 113.477 91.4547 113.017C91.4547 112.903 91.5544 112.809 91.6763 112.809C91.8015 112.809 91.901 113.461 91.9053 114.307C91.9166 116.674 92.2612 118.809 92.7344 119.443C92.9696 119.759 93.4703 120.105 93.8471 120.213C94.9177 120.521 95.8344 119.872 98.353 117.025C100.935 114.106 101.964 112.759 102.95 111.012L103.646 109.778L104.812 109.874C105.676 109.946 106.424 109.822 107.698 109.393C108.644 109.076 109.456 108.816 109.503 108.816C109.55 108.816 109.25 109.618 108.837 110.599C106.872 115.264 106.855 118.572 108.789 119.987C109.149 120.25 109.88 120.467 110.615 120.528C112.356 120.672 113.751 119.939 115.844 117.778C117.282 116.294 117.514 116.132 117.714 116.473C118.277 117.436 119.014 118.125 119.736 118.363C122.121 119.151 125.026 116.93 128.667 111.536C129.675 110.042 130.607 108.754 130.738 108.673C131.129 108.431 130.788 109.971 129.584 113.878C128.163 118.489 128.143 119.17 129.407 119.825C130.367 120.321 130.895 120.089 132.347 118.528C136.894 113.645 141.634 109.051 141.877 109.294C141.93 109.348 141.681 110.635 141.322 112.154C140.421 115.976 140.375 116.504 140.828 117.796C141.531 119.804 143.37 120.427 145.536 119.391C146.365 118.996 149.532 116.667 150.352 115.852C151.098 115.11 151.21 114.147 150.636 113.416C149.984 112.587 149.542 112.65 148.161 113.77C146.163 115.391 144.134 116.803 143.804 116.803C143.558 116.803 143.523 116.579 143.639 115.749C143.72 115.169 143.88 114.396 143.994 114.03C144.319 112.981 145.315 108.012 145.314 107.443C145.313 106.516 144.525 105.526 143.661 105.364C142.038 105.059 138.704 107.345 135.184 111.176C134.118 112.337 133.215 113.193 133.177 113.08C133.14 112.967 133.362 111.9 133.671 110.71C134.381 107.972 134.425 105.793 133.786 104.98C133.122 104.135 132.213 104.021 130.964 104.627C129.529 105.322 128.281 106.674 126.195 109.79C124.228 112.729 123.143 114 121.811 114.924C120.493 115.838 120.348 115.539 120.817 112.88C121.028 111.682 121.4 110.252 121.642 109.703C122.642 107.442 122.727 107.057 122.373 106.373C122.194 106.025 121.821 105.673 121.546 105.59C121.27 105.507 120.745 105.161 120.38 104.822C119.422 103.935 118.387 103.469 117.085 103.342C115.875 103.223 113.144 104.012 108.554 105.808C107.418 106.252 106.197 106.674 105.842 106.745C105.199 106.874 105.197 106.871 105.197 105.77C105.197 104.366 104.496 103.491 103.373 103.491C101.851 103.491 100.832 104.981 101.079 106.846C101.246 108.105 101.058 108.55 99.2958 111.065C98.1958 112.635 95.5722 115.719 95.2074 115.871C94.8815 116.006 94.7124 109.008 94.9955 107.103C95.2353 105.489 95.2257 105.193 94.9194 104.725C94.0065 103.33 92.7242 103.875 91.7845 106.059C90.438 109.188 88.9629 111.531 87.221 113.309C86.2943 114.254 85.3589 115.028 85.1422 115.028C84.7897 115.028 84.7589 114.846 84.8485 113.296C84.9278 111.924 85.0989 111.254 85.6706 110.08C86.4281 108.523 86.4634 107.59 85.7858 107.027C85.6094 106.88 85.2796 106.349 85.0531 105.847C84.1131 103.761 82.433 103.003 80.0709 103.599C77.9974 104.122 76.1648 105.118 74.5474 106.601C73.1582 107.876 68.244 113.305 65.7654 116.304C65.135 117.067 64.5084 117.691 64.373 117.691C64.0516 117.691 64.2799 114.35 64.7367 112.366C65.3682 109.624 65.8137 106.264 65.657 105.427C65.4309 104.221 64.705 103.488 63.5897 103.338C62.8215 103.235 62.3691 103.35 61.0412 103.986C59.239 104.85 57.8058 106.033 56.1543 108.02C55.5439 108.754 55.1017 109.158 55.1715 108.919C56.6362 103.894 56.8374 103.443 59.2263 99.8298C61.6944 96.097 64.5711 90.6035 65.3074 88.217C66.1364 85.5306 65.7498 83.4993 64.2147 82.4727C63.2887 81.8535 62.9972 81.8477 61.8309 82.4255ZM61.725 87.8622C61.2826 89.0752 60.8492 90.317 60.7626 90.6221C60.611 91.1548 60.6176 91.159 60.9297 90.733C61.4951 89.9605 62.6645 86.7868 62.5958 86.2106C62.5495 85.8219 62.2902 86.3138 61.725 87.8622ZM79.6398 107.268C78.9057 107.846 77.2438 110.351 76.5483 111.928C75.4903 114.327 75.239 116.581 76.0292 116.581C76.6185 116.581 81.508 111.115 82.3572 109.506C82.6653 108.923 82.5409 107.629 82.1291 107.132C81.7421 106.665 80.3058 106.744 79.6398 107.268ZM114.041 107.755C112.096 109.762 109.826 115.707 110.467 117.116C110.865 117.991 111.74 117.602 113.621 115.714C116.367 112.957 119.164 108.541 118.706 107.685C118.434 107.177 117.327 106.819 116.024 106.819C115.051 106.819 114.862 106.908 114.041 107.755Z" fill="#FDF7EA"/>
</svg>
