<svg width="556" height="553" viewBox="0 0 556 553" fill="none" xmlns="http://www.w3.org/2000/svg">
<path fill-rule="evenodd" clip-rule="evenodd" d="M448.201 484.5C451.838 472.349 454.708 456.966 457.183 436.349C462.605 391.189 463.635 383.097 464.317 380.339C470.976 353.398 474.969 343.266 483.932 330.555C494.422 315.681 504.483 306.399 532.458 285.782C543.144 277.907 547.761 272.909 551.507 265.164C560.305 246.97 555.815 225.922 539.026 206.654C531.385 197.885 523 192.227 499.369 179.892C475.392 167.377 467.913 162.366 461.327 154.403C455.343 147.168 450.832 134.187 450.589 123.501C450.493 119.267 451.617 106.601 453.089 95.3551C456.874 66.4078 456.255 55.9 450.044 43.7068C442.887 29.6568 428.408 21.0529 410.441 20.1756C396.154 19.4772 379.869 25.5125 352.321 41.7155C317.165 62.3934 300.562 66.1321 280.09 57.9813C268.586 53.4006 260.061 46.4654 242.724 27.582C231.613 15.4802 224.291 9.32613 216.454 5.5041C188.632 -8.06525 156.179 4.63872 145.247 33.3785C142.159 41.4975 140.796 51.7871 139.575 76.2231C138.99 87.9285 136.833 96.6496 132.113 106.396C123.156 124.888 109.399 133.327 79.7635 138.507C62.2712 141.565 52.0879 143.898 45.5479 146.349C27.6789 153.043 17.0342 161.946 8.7055 177.165C-1.67443 196.13 -2.81533 215.757 5.71598 228.593C12.5959 238.942 13.944 239.911 38.2121 251.93C61.6334 263.532 60.6699 262.887 68.1807 272.003C70.6621 275.015 74.0798 285.547 74.1958 290.539C74.4021 299.43 69.2607 319.699 64.1169 330.275C61.9779 334.674 60.0014 339.966 53.4451 358.859C42.2796 391.032 48.171 422.318 69.4891 444.061C80.5723 455.365 100.072 466.18 113.911 468.698C137.023 472.904 152.859 469.295 186.851 452.072C197.448 446.703 208.005 441.819 210.312 441.219C212.617 440.619 215.869 439.787 217.537 439.37C219.205 438.954 222.999 438.611 225.968 438.609C232.11 438.604 240.623 442.196 245.824 446.989C249.892 450.736 256.943 461.881 266.649 479.905C271.04 488.06 277.17 498.466 280.27 503.03C286.892 512.776 300.463 528.585 307.027 534.199C324.022 548.733 351.979 555.716 376.635 551.587C395.88 548.364 414.864 537.806 427.608 523.238C434.267 515.627 444.835 495.748 448.201 484.5Z" fill="#F2E2E7"/>
</svg>
