<svg width="1249" height="1242" viewBox="0 0 1249 1242" fill="none" xmlns="http://www.w3.org/2000/svg">
<path fill-rule="evenodd" clip-rule="evenodd" d="M1006.99 1088.66C1015.16 1061.37 1021.6 1026.82 1027.16 980.517C1039.34 879.092 1041.65 860.92 1043.18 854.725C1058.14 794.219 1067.1 771.465 1087.23 742.918C1110.79 709.513 1133.39 688.665 1196.22 642.362C1220.22 624.676 1230.59 613.451 1239 596.057C1258.76 555.197 1248.67 507.927 1210.97 464.653C1193.81 444.96 1174.97 432.25 1121.9 404.549C1068.05 376.441 1051.26 365.188 1036.47 347.305C1023.03 331.056 1012.9 301.902 1012.35 277.902C1012.13 268.393 1014.66 239.947 1017.96 214.691C1026.47 149.679 1025.08 126.08 1011.13 98.696C995.052 67.1415 962.534 47.8184 922.184 45.8481C890.096 44.2797 853.523 57.834 791.653 94.2238C712.697 140.663 675.41 149.06 629.432 130.754C603.596 120.467 584.451 104.891 545.513 62.482C520.561 35.3029 504.116 21.4817 486.516 12.898C424.031 -17.5769 351.147 10.9545 326.594 75.5001C319.658 93.7342 316.599 116.843 313.855 171.723C312.542 198.012 307.698 217.598 297.096 239.486C276.98 281.018 246.084 299.971 179.528 311.604C140.242 318.472 117.372 323.712 102.684 329.216C62.5528 344.25 38.6463 364.245 19.9413 398.424C-3.37059 441.018 -5.9329 485.097 13.2272 513.924C28.6786 537.168 31.7061 539.343 86.209 566.337C138.81 592.392 136.646 590.943 153.514 611.417C159.087 618.182 166.763 641.835 167.023 653.046C167.487 673.015 155.94 718.536 144.387 742.288C139.584 752.168 135.145 764.052 120.42 806.484C95.344 878.739 108.575 949.004 156.453 997.835C181.344 1023.22 225.139 1047.51 256.219 1053.17C308.124 1062.61 343.69 1054.51 420.03 1015.83C443.831 1003.77 467.541 992.801 472.721 991.453C477.899 990.104 485.202 988.237 488.948 987.301C492.695 986.366 501.216 985.595 507.883 985.591C521.677 985.579 540.795 993.648 552.477 1004.41C561.612 1012.83 577.449 1037.86 599.247 1078.34C609.108 1096.65 622.875 1120.02 629.838 1130.27C644.709 1152.16 675.187 1187.67 689.931 1200.27C728.098 1232.91 790.885 1248.6 846.259 1239.32C889.481 1232.09 932.117 1208.37 960.739 1175.66C975.692 1158.56 999.426 1113.92 1006.99 1088.66Z" fill="#F8E9DF"/>
</svg>
