<svg width="1109" height="1103" viewBox="0 0 1109 1103" fill="none" xmlns="http://www.w3.org/2000/svg">
<path fill-rule="evenodd" clip-rule="evenodd" d="M894.062 966.276C901.313 942.051 907.034 911.381 911.971 870.276C922.779 780.237 924.834 764.105 926.192 758.605C939.47 704.891 947.43 684.691 965.301 659.348C986.214 629.693 1006.27 611.186 1062.05 570.08C1083.36 554.38 1092.56 544.414 1100.03 528.973C1117.57 492.699 1108.62 450.736 1075.14 412.319C1059.91 394.837 1043.19 383.554 996.078 358.962C948.275 334.009 933.362 324.019 920.232 308.144C908.301 293.719 899.307 267.838 898.823 246.532C898.631 238.089 900.873 212.837 903.806 190.416C911.354 132.702 910.12 111.752 897.737 87.4417C883.466 59.4292 854.598 42.2752 818.778 40.526C790.292 39.1337 757.824 51.1665 702.899 83.4715C632.807 124.698 599.705 132.152 558.888 115.902C535.952 106.769 518.956 92.9416 484.389 55.2927C462.238 31.1645 447.639 18.8948 432.015 11.2746C376.544 -15.7794 311.841 9.54927 290.044 66.8495C283.887 83.0368 281.171 103.552 278.735 152.271C277.57 175.609 273.269 192.997 263.858 212.428C246 249.297 218.572 266.123 159.486 276.45C124.611 282.547 104.308 287.199 91.2685 292.085C55.642 305.431 34.4191 323.183 17.8138 353.525C-2.88132 391.338 -5.156 430.469 11.8534 456.059C25.5703 476.694 28.258 478.625 76.6428 502.589C123.339 525.719 121.418 524.433 136.393 542.609C141.34 548.615 148.154 569.612 148.386 579.565C148.797 597.293 138.546 637.703 128.291 658.789C124.026 667.56 120.085 678.11 107.014 715.779C84.7524 779.924 96.4983 842.301 139.002 885.651C161.099 908.189 199.977 929.751 227.569 934.772C273.647 943.157 305.221 935.962 372.992 901.624C394.121 890.919 415.169 881.181 419.768 879.985C424.365 878.788 430.848 877.13 434.174 876.299C437.5 875.469 445.064 874.785 450.984 874.781C463.229 874.771 480.201 881.934 490.572 891.489C498.681 898.959 512.74 921.18 532.091 957.116C540.846 973.374 553.067 994.121 559.249 1003.22C572.45 1022.65 599.507 1054.17 612.596 1065.37C646.478 1094.34 702.217 1108.26 751.375 1100.03C789.746 1093.61 827.596 1072.56 853.005 1043.51C866.28 1028.34 887.35 988.702 894.062 966.276Z" fill="#F2E2E7"/>
</svg>
