<svg width="16" height="16" viewBox="0 0 16 16" fill="none" xmlns="http://www.w3.org/2000/svg">
<path fill-rule="evenodd" clip-rule="evenodd" d="M6.45455 0.166725C4.36897 0.756622 1.93453 2.80676 0.742447 4.97715C0.211292 5.94425 -0.00366321 6.86882 4.42177e-05 8.17017C0.00282479 9.13219 0.0505122 9.50626 0.248266 10.1185C0.702069 11.5238 1.48433 12.7812 2.67981 14.0275C4.14731 15.5573 5.53272 16.0873 7.80627 15.9885C11.3933 15.8327 14.2622 13.8744 15.454 10.7683C15.9081 9.58506 16.0522 8.64501 15.9839 7.31163C15.8074 3.86186 13.6163 1.0795 10.3942 0.213484C9.4156 -0.0495346 7.30757 -0.0746458 6.45455 0.166725Z" fill="#872654"/>
<path fill-rule="evenodd" clip-rule="evenodd" d="M9.59209 3.56924C9.43923 3.6193 9.25262 3.79029 9.09573 4.02411C8.75207 4.53619 8.21793 5.82919 7.76484 7.24592C7.43762 8.26902 7.44508 8.25413 7.07776 8.61747C6.90784 8.78556 6.63494 9.04911 6.47134 9.2031C6.14972 9.50584 4.50854 10.8277 4.0827 11.1269C3.79293 11.3306 3.71145 11.4111 3.68755 11.5178C3.66576 11.615 3.75367 11.7609 3.85712 11.7992C3.92613 11.8248 3.96261 11.8172 4.09627 11.7492C4.27969 11.6559 4.68019 11.3788 4.97058 11.1444C5.08212 11.0543 5.44109 10.7762 5.76828 10.5264C6.41099 10.0356 6.79475 9.71907 7.01922 9.49462C7.09747 9.41639 7.16651 9.35771 7.17262 9.36423C7.17876 9.37076 7.15458 9.54106 7.11894 9.7427C7.03866 10.1966 6.98661 10.836 7.00905 11.093C7.04066 11.455 7.21007 11.7988 7.39809 11.8823C7.46425 11.9117 7.55603 11.9225 7.67696 11.9153C7.93777 11.8996 8.07432 11.7915 8.73728 11.0756C9.32022 10.4461 9.58479 10.1108 9.69306 9.8645C9.83332 9.54546 9.72546 9.33051 9.49007 9.45995C9.44894 9.48255 9.05103 9.89569 8.60583 10.3781C8.16061 10.8604 7.76254 11.2712 7.72125 11.2908C7.59738 11.3496 7.58112 11.3032 7.57079 10.8615C7.56084 10.4357 7.59364 10.1757 7.75816 9.3757C7.91248 8.62532 7.88652 8.67946 8.38096 8.07733C9.3576 6.88798 10.083 5.6913 10.3391 4.84718C10.4364 4.52633 10.4491 4.09156 10.3662 3.91396C10.2148 3.5892 9.92502 3.46019 9.59209 3.56924ZM9.63909 4.24847C9.43196 4.47029 9.01937 5.37522 8.58147 6.56802C8.40398 7.05155 8.38845 7.10399 8.43134 7.07579C8.47315 7.04833 8.90818 6.4282 9.10725 6.11229C9.42447 5.60892 9.77762 4.85592 9.85709 4.51348C9.93148 4.19303 9.81878 4.05602 9.63909 4.24847Z" fill="#F8E9DF"/>
</svg>
