<svg width="508" height="553" viewBox="0 0 508 553" fill="none" xmlns="http://www.w3.org/2000/svg">
<path fill-rule="evenodd" clip-rule="evenodd" d="M400.201 484.5C403.838 472.349 406.708 456.966 409.184 436.349C414.605 391.189 415.635 383.097 416.317 380.339C422.977 353.398 426.969 343.266 435.932 330.555C446.422 315.681 456.483 306.399 484.458 285.782C495.145 277.907 499.761 272.909 503.507 265.164C512.305 246.97 507.815 225.922 491.026 206.654C483.385 197.885 475 192.226 451.369 179.892C427.392 167.377 419.913 162.366 413.327 154.403C407.343 147.168 402.832 134.187 402.589 123.501C402.493 119.267 403.618 106.601 405.089 95.3551C408.875 66.4078 408.256 55.9 402.044 43.7068C394.887 29.6568 380.408 21.0529 362.442 20.1756C348.154 19.4772 331.869 25.5125 304.321 41.7155C269.165 62.3934 252.562 66.1321 232.09 57.9813C220.586 53.4006 212.061 46.4654 194.724 27.582C183.613 15.4802 176.291 9.32613 168.455 5.50411C140.632 -8.06524 108.179 4.63872 97.2468 33.3785C94.1588 41.4975 92.7963 51.7871 91.5748 76.2231C90.9902 87.9286 88.8333 96.6496 84.1127 106.396C75.1557 124.888 61.3987 133.327 31.7636 138.507C14.2713 141.565 4.088 143.898 -2.452 146.349C-20.321 153.043 -30.9657 161.946 -39.2944 177.165C-49.6743 196.13 -50.8152 215.757 -42.2839 228.593C-35.404 238.942 -34.0559 239.911 -9.78779 251.93C13.6335 263.532 12.67 262.887 20.1808 272.003C22.6622 275.015 26.0799 285.547 26.1959 290.539C26.4022 299.43 21.2609 319.699 16.117 330.275C13.978 334.674 12.0015 339.966 5.44525 358.859C-5.72031 391.032 0.171062 422.318 21.4893 444.061C32.5724 455.365 52.0726 466.18 65.9115 468.698C89.0228 472.904 104.859 469.295 138.851 452.072C149.448 446.703 160.005 441.819 162.312 441.219C164.617 440.619 167.869 439.787 169.537 439.37C171.206 438.954 175 438.611 177.969 438.609C184.11 438.604 192.623 442.196 197.825 446.989C201.892 450.736 208.943 461.881 218.649 479.905C223.04 488.06 229.17 498.466 232.271 503.03C238.892 512.776 252.463 528.585 259.028 534.199C276.022 548.733 303.979 555.716 328.635 551.587C347.88 548.364 366.864 537.806 379.609 523.238C386.267 515.627 396.835 495.748 400.201 484.5Z" fill="#F2E2E7"/>
</svg>
