<svg width="974" height="767" viewBox="0 0 974 767" fill="none" xmlns="http://www.w3.org/2000/svg">
<path fill-rule="evenodd" clip-rule="evenodd" d="M1006.99 613.655C1015.16 586.367 1021.6 551.819 1027.16 505.516C1039.34 404.092 1041.65 385.92 1043.18 379.724C1058.14 319.219 1067.1 296.465 1087.23 267.917C1110.79 234.513 1133.39 213.665 1196.22 167.362C1220.22 149.676 1230.59 138.451 1239 121.057C1258.76 80.1966 1248.67 32.9268 1210.97 -10.3472C1193.81 -30.0405 1174.97 -42.7496 1121.9 -70.4507C1068.05 -98.5592 1051.26 -109.812 1036.47 -127.695C1023.03 -143.944 1012.9 -173.098 1012.35 -197.098C1012.13 -206.608 1014.66 -235.053 1017.96 -260.309C1026.47 -325.321 1025.08 -348.92 1011.13 -376.304C995.052 -407.859 962.534 -427.182 922.184 -429.152C890.096 -430.72 853.523 -417.166 791.653 -380.776C712.697 -334.337 675.41 -325.94 629.432 -344.246C603.596 -354.533 584.451 -370.109 545.513 -412.518C520.561 -439.697 504.116 -453.518 486.516 -462.102C424.031 -492.577 351.147 -464.046 326.594 -399.5C319.658 -381.266 316.599 -358.157 313.855 -303.277C312.542 -276.988 307.698 -257.402 297.096 -235.514C276.98 -193.983 246.084 -175.029 179.528 -163.396C140.242 -156.528 117.372 -151.288 102.684 -145.784C62.5528 -130.751 38.6464 -110.755 19.9412 -76.5758C-3.37062 -33.9819 -5.93287 10.0973 13.2272 38.9236C28.6786 62.1675 31.7062 64.3426 86.2089 91.337C138.81 117.392 136.646 115.943 153.514 136.417C159.087 143.182 166.763 166.835 167.023 178.046C167.487 198.015 155.94 243.536 144.388 267.288C139.584 277.168 135.145 289.052 120.42 331.484C95.3439 403.739 108.575 474.004 156.453 522.835C181.344 548.223 225.139 572.511 256.219 578.168C308.124 587.613 343.69 579.508 420.03 540.828C443.831 528.77 467.541 517.8 472.721 516.453C477.899 515.104 485.202 513.237 488.948 512.301C492.695 511.366 501.216 510.595 507.883 510.591C521.677 510.579 540.795 518.648 552.477 529.411C561.612 537.826 577.449 562.857 599.247 603.336C609.108 621.651 622.875 645.021 629.838 655.271C644.709 677.159 675.187 712.666 689.931 725.274C728.098 757.913 790.885 773.597 846.259 764.324C889.481 757.085 932.117 733.373 960.739 700.655C975.692 683.562 999.426 638.917 1006.99 613.655Z" fill="#F8E9DF"/>
</svg>
