<svg width="442" height="302" viewBox="0 0 442 302" fill="none" xmlns="http://www.w3.org/2000/svg">
<path d="M220.196 0C222.484 -0.0496304 248.918 8.83967 328.584 36.4502C340.134 40.4532 369.366 50.5421 393.543 58.8701C417.719 67.1977 438.306 74.7402 439.293 75.6318C441.64 77.7558 441.622 83.4046 439.261 85.7656C437.681 87.3447 422.507 92.9999 397.584 101.298L394.259 102.404L393.761 166.901L396.362 167.554C400.722 168.648 408.279 177.078 410.269 183.069C413.435 192.606 410.768 203.284 403.487 210.212L400.216 213.325C389.353 218.848 381.21 218.421 371.454 213.18L368.531 210.402C366.923 208.874 364.41 205.599 362.947 203.124C360.745 199.4 360.287 197.417 360.293 191.624C360.298 185.732 360.773 183.766 363.293 179.201C366.151 174.024 371.7 168.932 376.536 167.049L378.786 166.174V135.649C378.786 120.054 378.666 111.777 378.309 107.929L375.121 109.046L353.354 116.506C341.381 120.609 329.713 124.658 327.426 125.502L323.269 127.038L328.319 137.741C342.482 167.747 351.136 205.957 352.715 245.443C352.748 246.278 352.782 247.07 352.813 247.822L352.814 247.848C353.131 255.41 353.277 258.934 351.832 261.591C350.571 263.909 348.099 265.568 343.471 268.674C342.938 269.032 342.376 269.408 341.784 269.808C320.718 284.023 290.001 295.039 258.584 299.645C239.759 302.405 198.253 302.138 179.394 299.135C155.063 295.261 139.121 290.363 118.188 280.331C105.387 274.195 94.3065 267.245 90.0605 262.687C88.3596 260.861 88.0883 259.164 88.1104 250.504C88.2044 213.835 97.9398 169.195 112.596 138.241L117.9 127.038L113.742 125.503C111.455 124.659 86.0054 115.871 57.1865 105.974C28.368 96.0768 3.7313 87.2858 2.43652 86.4375C-0.535462 84.4905 -0.866958 78.1129 1.875 75.6318C2.86 74.7408 23.4481 67.1943 47.625 58.8623C106.006 38.7443 114.559 35.7872 170.084 16.5312C196.209 7.47122 218.759 0.0320001 220.196 0Z" fill="black"/>
</svg>
